<svg id="Calque_1" data-name="Calque 1" xmlns="http://www.w3.org/2000/svg" viewBox="0 0 253.87 288.73"><defs><style>.cls-1{fill:#e57474;}.cls-2{fill:#b73e3e;}.cls-3{fill:#ef8989;}.cls-4{fill:#141b1e;}.cls-5{fill:#e5c76b;}.cls-6{fill:#c6a554;}.cls-7{fill:#dadada;}.cls-8{fill:#b3b9b8;}</style></defs><g id="U"><path class="cls-1" d="M251.28,123.27A29.86,29.86,0,0,0,240,101.53c-7.23-5.94-17.06-9.06-28.52-9.1-.27-1.14-.53-2.18-.77-3.11a46.6,46.6,0,0,0-20.22-28.39,52.24,52.24,0,0,0-31.65-7.73,50.27,50.27,0,0,0-29.08,11.59c-8.69,7.46-14,17.79-15.26,29.88-1.59,14.74-.41,35.46,14.16,50.46A46.38,46.38,0,0,0,146,156.47c-.81,26.47-5.85,44.46-15.07,53.71-5.93,5.93-13.49,8.31-23.13,7.28-8.79-1-15.3-4.67-19.91-11.38C82.57,198.33,73,179.28,76.5,156.2l-62-6.66c-3,30.1-9.53,68.41,1.55,88.14,15.24,27.15,43.55,43.13,84.15,47.49,40.16,4.31,70.84-5.42,91.2-28.92,16.82-19.41,26.23-47.53,28-83.58.3-6.15.35-12.17.22-18C242.24,152.18,251.92,136.87,251.28,123.27Z" transform="translate(-2 -2)"/><path class="cls-2" d="M40.54,152.34l-25.08-2.7c-38.71,105.93,71.94,157.82,149,117.77C65.14,295.22,27,226.33,40.54,152.34Z" transform="translate(-2 -2)"/><path class="cls-2" d="M121.69,96.6c1.86,16.84,18.07,14,19.85,8.81s4,48.14,4,48.14S110.6,140,121.69,96.6Z" transform="translate(-2 -2)"/><path class="cls-2" d="M226.77,97.88c-7.76,29.49,18.85,32.36,18.85,32.36s-7.74,20-26,22.61c-2.1-25.63-5.73-57.33-5.73-57.33Z" transform="translate(-2 -2)"/><path class="cls-3" d="M186.15,194.5C154.88,284.62,68,245.79,50.64,235.29s-16.75-.72-6,10.3,60.24,34.13,105.24,20.74,49.54-62.48,49.71-75.42S191.18,180,186.15,194.5Z" transform="translate(-2 -2)"/><path class="cls-3" d="M173.1,68.6c-39.23-5.86-47.52,23.8-45.67,34.32s4.65,3.69,6.74-3,12.48-20.08,37.35-16.62C194.92,86.59,189.58,71.06,173.1,68.6Z" transform="translate(-2 -2)"/><path class="cls-4" d="M242.92,98c-7.28-6-16.82-9.39-27.83-10A51,51,0,0,0,193,57.08a56.87,56.87,0,0,0-34.43-8.43A54.9,54.9,0,0,0,126.8,61.33c-9.58,8.23-15.39,19.59-16.82,32.86-3.06,28.46,6.7,45.14,15.43,54.12a52.29,52.29,0,0,0,16,11.19q-.33,7.38-1.13,13.77c-2,16-6.22,27.38-12.51,33.68-4.89,4.9-11.23,6.85-19.41,6-12.4-1.33-19.37-9.89-23-16.83-5.52-10.46-7.63-24.85-6-40.5a6.84,6.84,0,1,0-13.61-1.46c-4.25,39.57,12.66,69.34,41.13,72.4,12.39,1.33,22.67-2,30.55-9.91,16.71-16.75,21.63-54,15-113.92a6.84,6.84,0,1,0-13.6,1.5c1.61,14.67,2.51,28,2.7,39.82a39.37,39.37,0,0,1-6.77-5.72c-9.39-10-13.15-24.34-11.18-42.65,2.46-22.89,20.89-32.27,35.92-33.35,17.06-1.22,36.78,7.36,42.38,29.28.32,1.25.68,2.72,1.07,4.38,0,.22.09.44.15.65a294.26,294.26,0,0,1,7.27,54.91,6.5,6.5,0,0,0-.07,1.53,6.69,6.69,0,0,0,.14,1c.15,5.88.11,12-.19,18.18a174.23,174.23,0,0,1-7,42.84c-4.35,14.05-10.65,25.9-18.71,35.2-18.29,21.12-46.33,29.8-83.33,25.83-18.87-2-35-6.77-47.9-14.08a72.19,72.19,0,0,1-27.12-26.08c-14.29-24.2-13.9-58.56,1.08-94.25a6.85,6.85,0,1,0-12.63-5.29C6.75,155.14,2.4,174.33,2,191.9c-.41,19.27,3.74,36.42,12.35,51a85.5,85.5,0,0,0,32.15,31c14.55,8.25,32.44,13.56,53.18,15.79,41.73,4.48,73.74-5.77,95.14-30.48,17.5-20.19,27.28-49.24,29.08-86.34.23-4.85.32-9.63.28-14.31,9-1.68,16.65-5.49,22.26-11.19a32.23,32.23,0,0,0,9.36-24.33A34.84,34.84,0,0,0,242.92,98Zm-19.17,46.64A312.8,312.8,0,0,0,218.28,102c15.74,2.26,23.43,12.18,23.88,21.67C242.7,135.14,234.11,142,223.75,144.64Z" transform="translate(-2 -2)"/><path class="cls-5" d="M74.7,154c-7.81,7-53.2-.58-58.58-13.22C36.17,96,63.85,56.1,63.85,56.1S75.74,104.35,74.7,154Z" transform="translate(-2 -2)"/><path class="cls-6" d="M48.43,155.44c11.65,1.89,22.76,1.69,26.27-1.48,1-49.61-10.85-97.86-10.85-97.86S53.4,142,48.43,155.44Z" transform="translate(-2 -2)"/><path class="cls-7" d="M32.67,101.71C10.4,64.16,60.23,41.82,70.71,8.84c30.47,34.61,33.88,75.67,4.12,100.35C66.52,116.08,43.29,119.62,32.67,101.71Z" transform="translate(-2 -2)"/><path class="cls-8" d="M38.67,62.08c13,25.07,43.74,21.48,50.51-14.38,10,41-18,68.88-40.09,61.92S28.71,76,38.67,62.08Z" transform="translate(-2 -2)"/><path class="cls-4" d="M53.18,163A117.48,117.48,0,0,1,41,161c-9.78-2.16-26.83-7.31-31.2-17.57a6.83,6.83,0,0,1,0-5.48c5.2-11.58,11.36-23.87,18.31-36.53a6.85,6.85,0,1,1,12,6.6c-6,11-11.45,21.66-16.13,31.81,1.87,1.49,5.51,3.6,12,5.68,13.22,4.25,26.28,4.87,31.89,3.94A363.92,363.92,0,0,0,66,111.33,6.84,6.84,0,1,1,79.59,110a364.77,364.77,0,0,1,2,44.15A6.84,6.84,0,0,1,79.28,159C73.82,164,62.3,164,53.18,163Z" transform="translate(-2 -2)"/><path class="cls-4" d="M52.28,121.41c-.78-.08-1.56-.19-2.32-.32A32.66,32.66,0,0,1,26.78,105.2h0C19.25,92.49,18.14,80,23.4,67,27.75,56.31,36,46.66,43.88,37.33,52.2,27.54,60.81,17.42,64.19,6.77A6.85,6.85,0,0,1,75.85,4.32c18.64,21.18,28,44.93,26.24,66.88-1.34,17-9.25,32-22.89,43.26C72.84,119.74,62.05,122.46,52.28,121.41ZM38.56,98.22A19.08,19.08,0,0,0,52.3,107.6c7.11,1.24,14.81-.9,18.16-3.67,10.73-8.9,17-20.59,18-33.8,1.21-15.45-4.43-32.28-16-48.24-4.84,8.7-11.55,16.6-18.1,24.31-17,20-26.89,33.24-15.75,52Z" transform="translate(-2 -2)"/></g></svg>