<?xml version="1.0" encoding="utf-8"?>
<!-- Generator: Adobe Illustrator 25.2.0, SVG Export Plug-In . SVG Version: 6.00 Build 0)  -->
<svg version="1.1" id="Calque_1" xmlns="http://www.w3.org/2000/svg" xmlns:xlink="http://www.w3.org/1999/xlink" x="0px" y="0px"
	 viewBox="0 0 253.87 288.73" style="enable-background:new 0 0 253.87 288.73;" xml:space="preserve">
<style type="text/css">
	.st0{fill:#E57474;}
	.st1{fill:#B73E3E;}
	.st2{fill:#EF8989;}
	.st3{fill:#141B1E;}
	.st4{fill:#E5C76B;}
	.st5{fill:#C6A554;}
	.st6{fill:#DADADA;}
	.st7{fill:#B3B9B8;}
</style>
<g id="U">
	<path class="st0" d="M249.28,121.27c-0.4-8.38-4.39-16.1-11.26-21.75c-7.22-5.94-17.05-9.06-28.52-9.1
		c-0.28-1.14-0.53-2.18-0.77-3.11c-3.1-12.13-10.09-21.95-20.22-28.4c-9.1-5.79-20.34-8.54-31.65-7.73
		c-10.97,0.79-21.3,4.9-29.08,11.59c-8.68,7.46-13.96,17.8-15.26,29.88c-1.58,14.74-0.41,35.46,14.16,50.45
		c7.01,7.21,14.43,10.32,17.34,11.34c-0.81,26.47-5.85,44.46-15.08,53.71c-5.92,5.94-13.48,8.32-23.12,7.28
		c-8.79-0.94-15.3-4.66-19.92-11.37c-5.33-7.75-14.87-26.81-11.4-49.88l-62-6.66c-3,30.1-9.53,68.41,1.54,88.14
		c15.24,27.15,43.56,43.13,84.15,47.49c40.15,4.31,70.84-5.42,91.2-28.92c16.81-19.41,26.22-47.52,27.97-83.58
		c0.3-6.15,0.35-12.17,0.22-18.02C240.24,150.18,249.92,134.87,249.28,121.27z"/>
	<path class="st1" d="M38.54,150.34l-25.08-2.7C-25.25,253.57,85.4,305.46,162.51,265.41C63.14,293.22,24.99,224.33,38.54,150.34z"
		/>
	<path class="st1" d="M119.69,94.6c1.86,16.83,18.08,13.95,19.85,8.81c1.78-5.14,4,48.14,4,48.14S108.6,137.96,119.69,94.6z"/>
	<path class="st1" d="M224.77,95.88c-7.76,29.49,18.85,32.36,18.85,32.36s-7.74,20.02-26.03,22.61c-2.1-25.63-5.73-57.33-5.73-57.33
		L224.77,95.88z"/>
	<path class="st2" d="M184.15,192.5c-31.26,90.13-118.17,51.29-135.51,40.79c-17.34-10.5-16.75-0.72-5.98,10.3
		c10.77,11.02,60.24,34.13,105.24,20.74c45-13.39,49.54-62.47,49.71-75.42C197.78,175.96,189.18,178,184.15,192.5z"/>
	<path class="st2" d="M171.1,66.6c-39.23-5.85-47.52,23.8-45.67,34.32c1.85,10.52,4.65,3.69,6.74-2.95
		c2.09-6.65,12.48-20.08,37.34-16.62C192.92,84.59,187.58,69.06,171.1,66.6z"/>
	<path class="st3" d="M240.92,96c-7.27-5.98-16.81-9.39-27.82-10.02c-3.42-13.17-11.07-23.86-22.14-30.9
		c-9.92-6.31-22.15-9.31-34.42-8.43c-11.94,0.86-23.21,5.36-31.73,12.68c-9.58,8.23-15.4,19.59-16.82,32.86
		c-3.06,28.47,6.7,45.14,15.43,54.12c5.77,5.93,11.87,9.36,15.95,11.19c-0.22,4.92-0.59,9.52-1.13,13.77
		c-2.01,16.04-6.22,27.38-12.51,33.69c-4.88,4.89-11.23,6.85-19.41,5.97c-12.4-1.33-19.37-9.89-23.03-16.83
		c-5.52-10.47-7.63-24.85-5.95-40.5c0.4-3.76-2.32-7.13-6.07-7.53c-3.76-0.4-7.13,2.32-7.53,6.07
		c-4.25,39.57,12.66,69.34,41.12,72.4c12.39,1.33,22.67-2,30.56-9.91c16.71-16.75,21.62-54.01,15.04-113.92
		c-0.41-3.76-3.8-6.47-7.55-6.05c-3.76,0.41-6.47,3.79-6.05,7.55c1.61,14.67,2.51,27.97,2.71,39.82c-2.15-1.43-4.5-3.3-6.77-5.72
		c-9.39-9.99-13.15-24.34-11.18-42.65c2.46-22.89,20.89-32.27,35.92-33.35c17.06-1.22,36.78,7.36,42.38,29.28
		c0.32,1.25,0.68,2.72,1.07,4.38c0.04,0.22,0.09,0.44,0.15,0.65c2.64,11.42,6.44,31.44,7.26,54.91c-0.08,0.5-0.11,1.01-0.07,1.53
		c0.02,0.34,0.08,0.67,0.15,1c0.15,5.89,0.11,11.97-0.2,18.18c-0.77,15.83-3.13,30.24-7.04,42.84c-4.35,14.05-10.65,25.9-18.71,35.2
		c-18.29,21.11-46.33,29.8-83.33,25.82c-18.87-2.03-34.99-6.77-47.9-14.08c-11.69-6.62-20.81-15.39-27.11-26.07
		c-14.29-24.21-13.9-58.56,1.07-94.25c1.46-3.49-0.18-7.5-3.66-8.96c-3.49-1.46-7.5,0.18-8.96,3.66
		C4.75,153.14,0.4,172.33,0.03,189.9c-0.41,19.27,3.75,36.42,12.35,51c7.54,12.77,18.36,23.21,32.15,31.02
		c14.55,8.24,32.44,13.55,53.18,15.78c41.73,4.48,73.74-5.77,95.14-30.47c17.5-20.2,27.28-49.25,29.07-86.34
		c0.23-4.85,0.32-9.63,0.29-14.31c9.04-1.68,16.65-5.49,22.26-11.2c6.47-6.59,9.79-15.23,9.37-24.33
		C253.38,111.51,248.67,102.38,240.92,96z M221.75,142.64c-0.97-16.87-3.3-31.7-5.48-42.6c15.75,2.26,23.44,12.18,23.89,21.67
		C240.7,133.14,232.11,140.02,221.75,142.64z"/>
	<g>
		<path class="st4" d="M72.7,151.96c-7.81,7.04-53.2-0.58-58.58-13.22C34.17,94.02,61.85,54.1,61.85,54.1S73.74,102.35,72.7,151.96z
			"/>
	</g>
	<g>
		<path class="st5" d="M46.43,153.44c11.65,1.89,22.76,1.69,26.27-1.48c1.04-49.61-10.85-97.86-10.85-97.86
			S51.4,139.99,46.43,153.44z"/>
	</g>
	<g>
		<path class="st6" d="M30.67,99.71C8.4,62.16,58.23,39.82,68.71,6.84c30.47,34.61,33.88,75.67,4.12,100.35
			C64.52,114.08,41.29,117.62,30.67,99.71z"/>
	</g>
	<g>
		<path class="st7" d="M36.67,60.08C49.63,85.15,80.41,81.56,87.18,45.7c10.05,40.95-17.98,68.88-40.09,61.92
			C24.99,100.66,26.71,73.99,36.67,60.08z"/>
	</g>
	<g>
		<path class="st3" d="M51.18,160.97c-5.61-0.6-10.31-1.57-12.16-1.98c-9.78-2.16-26.83-7.31-31.2-17.57
			c-0.75-1.75-0.73-3.74,0.05-5.48c5.19-11.58,11.35-23.87,18.31-36.53c1.82-3.31,5.98-4.52,9.29-2.7c3.31,1.82,4.52,5.98,2.7,9.29
			c-6.04,10.98-11.45,21.67-16.13,31.81c1.87,1.49,5.51,3.6,11.98,5.68c13.22,4.25,26.27,4.87,31.88,3.94
			c0.07-11.92-0.58-24.72-1.94-38.12c-0.38-3.76,2.36-7.12,6.12-7.5c3.76-0.38,7.12,2.36,7.5,6.12c1.58,15.6,2.24,30.45,1.95,44.16
			c-0.04,1.89-0.86,3.67-2.26,4.94C71.82,161.97,60.3,161.95,51.18,160.97z"/>
	</g>
	<g>
		<path class="st3" d="M50.28,119.41c-0.78-0.08-1.55-0.19-2.32-0.32c-10.03-1.74-18.04-7.23-23.17-15.89l0,0
			c-7.54-12.71-8.64-25.19-3.39-38.16c4.35-10.73,12.55-20.38,20.48-29.71c8.32-9.79,16.92-19.91,20.31-30.56
			c0.75-2.35,2.7-4.12,5.11-4.62c2.41-0.51,4.91,0.32,6.54,2.17c18.64,21.18,27.96,44.93,26.24,66.88
			c-1.33,16.99-9.25,31.95-22.89,43.27C70.84,117.74,60.05,120.46,50.28,119.41z M36.56,96.22c3.07,5.18,7.69,8.33,13.74,9.38
			c7.11,1.23,14.82-0.9,18.16-3.67c10.73-8.9,16.95-20.58,17.98-33.8c1.21-15.45-4.43-32.28-16.03-48.24
			c-4.84,8.7-11.55,16.6-18.1,24.3C35.29,64.22,25.42,77.44,36.56,96.22L36.56,96.22z"/>
	</g>
</g>
</svg>
